<svg width="491" height="431" viewBox="0 0 491 431" fill="none" xmlns="http://www.w3.org/2000/svg">
<g clip-path="url(#clip0_1_25)">
<path d="M472.554 289.199C463.154 288.499 443.754 298.999 438.454 301.699C419.554 311.199 393.254 326.099 375.954 337.999C374.754 338.799 373.154 339.899 371.954 340.699C364.154 345.699 355.954 348.999 346.854 350.999C296.654 361.699 223.554 362.799 223.554 362.799L219.254 362.999C216.054 363.199 213.154 360.899 212.754 357.799C212.254 354.399 214.754 351.199 218.354 350.899L327.054 340.599C339.054 339.299 348.554 328.099 347.254 315.499C345.954 302.899 334.354 293.699 322.354 294.999L225.654 293.799C219.054 293.699 208.554 292.099 202.254 290.199C139.954 271.999 104.754 288.999 86.054 296.999C81.854 290.099 73.954 285.599 65.154 286.199L23.454 288.999C9.554 289.899 -0.845995 301.499 0.0540047 314.899L6.754 407.499C7.754 420.899 19.754 430.999 33.654 429.999L75.354 427.199C84.154 426.599 91.354 421.199 94.454 413.799L277.654 421.699C298.054 423.899 317.154 421.399 335.154 411.999L340.354 409.299L478.854 328.299C485.654 324.299 490.454 317.399 490.754 309.799C491.054 300.499 485.754 290.199 472.554 289.199ZM48.954 408.099C41.154 408.099 34.754 401.999 34.754 394.399C34.754 386.799 41.154 380.699 48.954 380.699C56.754 380.699 63.154 386.799 63.154 394.399C63.154 401.999 56.754 408.099 48.954 408.099ZM369.554 321.099C369.754 318.599 369.754 315.999 369.454 313.399C369.154 310.099 368.354 306.999 367.354 303.999C367.454 303.799 367.554 303.599 367.554 303.399C382.154 295.399 410.754 281.599 426.354 275.499C434.154 272.399 441.854 272.599 448.954 277.399C443.354 279.399 438.154 281.899 433.254 284.299C416.854 292.499 387.954 308.199 373.854 318.099C372.454 319.099 370.954 320.099 369.554 321.099ZM411.354 266.199C400.054 271.199 378.354 278.799 368.054 284.499L361.054 288.299C360.354 288.699 359.754 289.099 359.154 289.599C356.054 285.899 352.354 282.799 348.254 280.299C357.854 275.199 379.254 268.299 388.954 264.499C396.754 261.399 404.254 261.599 411.354 266.199ZM256.054 34.599C226.354 34.599 202.354 58.699 202.354 88.299C202.354 117.899 226.454 141.999 256.054 141.999C285.754 141.999 309.754 117.899 309.754 88.299C309.754 58.699 285.754 34.599 256.054 34.599ZM271.454 109.499C269.154 112.299 266.054 114.299 262.454 115.199C260.854 115.599 260.254 116.399 260.254 118.099C260.354 119.699 260.254 121.299 260.254 122.899C260.254 124.299 259.554 125.099 258.154 125.099C256.454 125.099 254.754 125.099 253.054 125.099C251.554 125.099 250.854 124.199 250.854 122.799C250.854 121.599 250.854 120.499 250.854 119.299C250.854 116.699 250.754 116.599 248.254 116.199C245.154 115.699 242.054 114.999 239.154 113.599C236.854 112.499 236.654 111.899 237.354 109.599C237.854 107.799 238.354 106.099 238.854 104.299C239.454 102.299 240.054 101.999 241.854 102.999C245.054 104.699 248.454 105.599 251.954 105.999C254.254 106.299 256.454 106.099 258.554 105.099C262.454 103.399 263.154 98.799 259.754 95.999C258.654 95.099 257.354 94.399 255.954 93.799C252.454 92.299 248.854 91.099 245.654 89.199C240.354 85.999 236.954 81.699 237.354 75.199C237.754 67.899 241.954 63.299 248.654 60.899C251.454 59.899 251.454 59.899 251.454 56.999C251.454 55.999 251.454 54.999 251.454 54.099C251.554 51.899 251.854 51.599 254.054 51.499C254.754 51.499 255.354 51.499 256.054 51.499C260.654 51.499 260.654 51.499 260.654 56.099C260.654 59.399 260.654 59.399 263.954 59.899C266.454 60.299 268.854 60.999 271.154 61.999C272.454 62.599 272.954 63.399 272.554 64.799C271.954 66.799 271.454 68.799 270.754 70.799C270.154 72.699 269.554 72.899 267.754 72.099C264.154 70.399 260.354 69.599 256.354 69.799C255.354 69.899 254.254 69.999 253.354 70.399C249.954 71.899 249.354 75.699 252.254 77.999C253.754 79.199 255.454 79.999 257.154 80.799C260.154 82.099 263.254 83.299 266.154 84.899C275.554 90.099 277.954 101.599 271.454 109.499ZM349.154 88.299C349.154 96.499 342.454 103.199 334.254 103.199C326.054 103.199 319.354 96.499 319.354 88.299C319.354 80.099 326.054 73.399 334.254 73.399C342.454 73.399 349.154 80.099 349.154 88.299ZM192.854 88.299C192.854 96.499 186.154 103.199 177.954 103.199C169.754 103.199 163.054 96.499 163.054 88.299C163.054 80.099 169.754 73.399 177.954 73.399C186.154 73.399 192.854 80.099 192.854 88.299ZM373.054 0.698997H139.054C125.554 0.698997 114.554 11.699 114.554 25.199V151.399C114.554 164.899 125.554 175.899 139.054 175.899H373.054C386.554 175.899 397.554 164.899 397.554 151.399V25.199C397.554 11.699 386.554 0.698997 373.054 0.698997ZM376.654 127.899C374.654 127.399 372.654 127.099 370.554 127.099C356.854 127.099 345.754 138.199 345.754 151.899C345.754 152.899 345.854 153.999 345.954 154.999H164.254C164.554 153.499 164.654 151.999 164.654 150.399C164.654 136.699 153.554 125.599 139.854 125.599C138.354 125.599 136.954 125.699 135.454 125.999V50.599C136.854 50.899 138.354 50.999 139.854 50.999C153.554 50.999 164.654 39.899 164.654 26.199C164.654 24.599 164.554 23.099 164.254 21.599H346.454C345.954 23.499 345.654 25.599 345.654 27.699C345.654 41.399 356.754 52.499 370.454 52.499C372.554 52.499 374.654 52.199 376.554 51.699V127.899H376.654ZM114.954 202.999C114.954 197.199 119.654 192.499 125.454 192.499H387.154C392.954 192.499 397.654 197.199 397.654 202.999C397.654 208.799 392.954 213.499 387.154 213.499H125.354C119.654 213.499 114.954 208.799 114.954 202.999ZM114.954 240.999C114.954 235.199 119.654 230.499 125.454 230.499H387.154C392.954 230.499 397.654 235.199 397.654 240.999C397.654 246.799 392.954 251.499 387.154 251.499H125.354C119.654 251.499 114.954 246.799 114.954 240.999Z" fill="#0A522D"/>
</g>
<defs>
<clipPath id="clip0_1_25">
<rect width="491" height="431" fill="white"/>
</clipPath>
</defs>
</svg>
