<svg width="395" height="395" viewBox="0 0 395 395" fill="none" xmlns="http://www.w3.org/2000/svg">
<g clip-path="url(#clip0_1_28)">
<path d="M139.223 287.031C126.7 280.868 102.583 284.149 90.663 291.398C88.743 291.246 86.811 291.791 85.338 293.37C76.19 303.171 79.718 315.623 80.439 328.211C81.347 344.101 82.327 360.018 83.692 375.875C84.219 381.973 88.461 387.224 95.028 387.21C106.128 387.19 117.293 387.586 128.385 387.224C133.766 387.049 139.563 386.966 143.593 382.73C148.687 377.38 147.763 368.615 147.835 361.937C147.957 350.482 148.017 339.027 148.043 327.571C148.073 315.499 152.923 293.773 139.223 287.031Z" fill="#0A522D"/>
<path d="M246.076 227.056C245.904 220.848 240.739 214.773 234.129 215.108C219.087 215.872 204.042 216.569 188.997 217.28C186.655 217.39 184.784 218.153 183.146 219.169C179.524 219.749 176.177 222.395 175.696 227.314C170.71 278.323 171.281 329.729 170.376 380.95C170.264 387.35 175.856 392.65 182.135 392.709C209.185 392.963 240.595 403.06 244.366 369.871C249.683 323.071 247.379 274.036 246.076 227.056Z" fill="#0A522D"/>
<path d="M339.133 157.259C339.565 150.454 333.283 145.767 327.169 145.297C310.391 144.005 293.682 143.016 276.869 142.319C266.945 141.907 263.398 151.59 266.109 158.847C265.886 159.657 265.584 160.403 265.558 161.364C263.503 235.107 264.531 308.795 261.227 382.538C260.963 388.447 266.532 393.774 272.337 393.648C289.662 393.271 306.99 392.922 324.314 392.574C330.303 392.454 335.835 387.478 335.65 381.24C333.418 306.484 334.399 231.901 339.133 157.259Z" fill="#0A522D"/>
<path d="M334.12 18.091C330.124 11.214 320.536 9.029 313.578 6.952C301.304 3.289 288.729 1.29 276.004 0.0540001C262.568 -1.25 259.389 21.388 272.792 23.776C280.757 25.196 288.664 27.079 296.582 28.871C211.096 81.698 126.074 150.651 58.324 223.434C48.818 233.647 63.022 247.348 73.45 238.56C150.181 173.906 226.994 111.953 306.582 51.179C304.604 60.263 302.71 69.367 300.698 78.407C294.796 92.545 320.586 100.45 324.069 84.85C327.151 71.042 330.216 57.232 333.289 43.423C335.076 35.401 338.634 25.858 334.12 18.091Z" fill="#0A522D"/>
</g>
<defs>
<clipPath id="clip0_1_28">
<rect width="394.348" height="394.348" fill="white"/>
</clipPath>
</defs>
</svg>
