<svg width="173" height="173" viewBox="0 0 173 173" fill="none" xmlns="http://www.w3.org/2000/svg">
<path d="M24.7143 32.4375C24.7143 21.3475 33.7045 12.3571 44.7946 12.3571H128.205C139.295 12.3571 148.286 21.3474 148.286 32.4375V107.376C147.542 107.873 146.836 108.451 146.179 109.107L139.018 116.268V32.4375C139.018 26.4659 134.177 21.625 128.205 21.625H44.7946C38.8231 21.625 33.9821 26.4659 33.9821 32.4375V140.561C33.9821 146.532 38.8231 151.373 44.7946 151.373H94.6415L103.909 160.641H44.7946C33.7045 160.641 24.7143 151.651 24.7143 140.561V32.4375Z" fill="#0A522D"/>
<path d="M64.875 54.0625C64.875 58.3279 61.4172 61.7857 57.1518 61.7857C52.8863 61.7857 49.4286 58.3279 49.4286 54.0625C49.4286 49.7971 52.8863 46.3393 57.1518 46.3393C61.4172 46.3393 64.875 49.7971 64.875 54.0625Z" fill="#0A522D"/>
<path d="M57.1518 94.222C61.4172 94.222 64.875 90.7644 64.875 86.4988C64.875 82.2337 61.4172 78.7755 57.1518 78.7755C52.8863 78.7755 49.4286 82.2337 49.4286 86.4988C49.4286 90.7644 52.8863 94.222 57.1518 94.222Z" fill="#0A522D"/>
<path d="M57.1518 126.661C61.4172 126.661 64.875 123.203 64.875 118.938C64.875 114.672 61.4172 111.214 57.1518 111.214C52.8863 111.214 49.4286 114.672 49.4286 118.938C49.4286 123.203 52.8863 126.661 57.1518 126.661Z" fill="#0A522D"/>
<path d="M78.7768 49.4286C76.2176 49.4286 74.1429 51.5033 74.1429 54.0625C74.1429 56.6217 76.2176 58.6964 78.7768 58.6964H118.938C121.497 58.6964 123.571 56.6217 123.571 54.0625C123.571 51.5033 121.497 49.4286 118.938 49.4286H78.7768Z" fill="#0A522D"/>
<path d="M74.1429 86.4988C74.1429 83.9396 76.2176 81.8648 78.7768 81.8648H118.938C121.497 81.8648 123.571 83.9396 123.571 86.4988C123.571 89.0579 121.497 91.1327 118.938 91.1327H78.7768C76.2176 91.1327 74.1429 89.0579 74.1429 86.4988Z" fill="#0A522D"/>
<path d="M78.7768 114.304C76.2176 114.304 74.1429 116.378 74.1429 118.938C74.1429 121.497 76.2176 123.571 78.7768 123.571H118.938C121.497 123.571 123.571 121.497 123.571 118.938C123.571 116.378 121.497 114.304 118.938 114.304H78.7768Z" fill="#0A522D"/>
<path d="M159.285 122.214L122.214 159.285C121.345 160.155 120.166 160.643 118.937 160.643C117.709 160.643 116.53 160.155 115.661 159.285L97.137 140.762C95.3273 138.952 95.3273 136.018 97.137 134.208C98.9467 132.399 101.881 132.399 103.691 134.208L118.937 149.455L152.732 115.661C154.542 113.851 157.476 113.851 159.285 115.661C161.095 117.471 161.095 120.404 159.285 122.214Z" fill="#0A522D"/>
</svg>
